<?xml version="1.0" encoding="UTF-8" standalone="no"?>
<!DOCTYPE svg PUBLIC "-//W3C//DTD SVG 1.1//EN" "http://www.w3.org/Graphics/SVG/1.1/DTD/svg11.dtd">
<svg width="100%" height="100%" viewBox="0 0 238 51" version="1.1" xmlns="http://www.w3.org/2000/svg" xmlns:xlink="http://www.w3.org/1999/xlink" xml:space="preserve" xmlns:serif="http://www.serif.com/" style="fill-rule:evenodd;clip-rule:evenodd;stroke-linejoin:round;stroke-miterlimit:2;">
    <g transform="matrix(1,0,0,1,-1002.51,-970.791)">
        <g transform="matrix(1,0,0,1,185.082,-460.687)">
            <path d="M847.976,1440.48C847.276,1442.31 845.909,1443.96 843.876,1445.43C840.876,1447.56 837.226,1448.63 832.926,1448.63C830.992,1448.63 829.142,1448.38 827.376,1447.88C826.342,1449.28 825.576,1450.51 825.076,1451.58C823.609,1454.75 822.876,1457.8 822.876,1460.73C822.876,1465.33 824.992,1467.63 829.226,1467.63C831.826,1467.63 834.359,1466.51 836.826,1464.28C839.292,1462.05 840.526,1459.63 840.526,1457.03C840.526,1454.96 839.726,1453.93 838.126,1453.93C837.359,1453.93 836.551,1454.27 835.701,1454.95C834.851,1455.64 834.476,1456.35 834.576,1457.08C834.576,1457.58 834.392,1457.83 834.026,1457.83C833.792,1457.83 833.676,1457.68 833.676,1457.38C833.509,1456.21 833.942,1455.21 834.976,1454.38C836.009,1453.55 837.109,1453.13 838.276,1453.13C839.542,1453.13 840.576,1453.49 841.376,1454.2C842.176,1454.92 842.576,1455.91 842.576,1457.18C842.576,1458.18 842.292,1459.26 841.726,1460.43C840.692,1462.56 838.934,1464.44 836.451,1466.08C833.967,1467.71 831.576,1468.53 829.276,1468.53C826.209,1468.53 823.801,1467.6 822.051,1465.75C820.301,1463.9 819.426,1461.43 819.426,1458.33C819.426,1455.86 819.976,1453.46 821.076,1451.13C821.742,1449.69 822.626,1448.25 823.726,1446.78C821.692,1445.75 820.109,1444.36 818.976,1442.63C817.942,1441.06 817.426,1439.41 817.426,1437.68C817.426,1435.81 818.009,1434.31 819.176,1433.18C820.342,1432.05 821.859,1431.48 823.726,1431.48C826.759,1431.48 829.142,1433.18 830.876,1436.58C831.042,1437.05 830.959,1437.28 830.626,1437.28C830.492,1437.28 830.376,1437.14 830.276,1436.88C828.609,1433.81 826.426,1432.28 823.726,1432.28C822.426,1432.28 821.351,1432.67 820.501,1433.45C819.651,1434.24 819.226,1435.26 819.226,1436.53C819.226,1438.26 819.776,1439.98 820.876,1441.68C821.909,1443.21 823.209,1444.48 824.776,1445.48C827.076,1442.68 829.776,1440.35 832.876,1438.48C836.309,1436.41 839.659,1435.3 842.926,1435.13C846.592,1434.93 848.426,1436.01 848.426,1438.38C848.426,1438.98 848.276,1439.68 847.976,1440.48ZM846.876,1438.53C846.876,1436.63 845.659,1435.8 843.226,1436.03C840.892,1436.26 838.142,1437.63 834.976,1440.13C832.509,1442.1 830.259,1444.3 828.226,1446.73C830.126,1447.39 831.709,1447.73 832.976,1447.73C837.076,1447.73 840.409,1446.76 842.976,1444.83C843.976,1444.06 844.842,1443.14 845.576,1442.08C846.442,1440.81 846.876,1439.63 846.876,1438.53Z" style="fill:rgb(0,171,255);fill-rule:nonzero;"/>
            <path d="M865.426,1457.98C864.459,1459.68 863.009,1461.25 861.076,1462.68C858.942,1464.28 857.009,1465.06 855.276,1465.03C854.742,1465.03 854.309,1464.96 853.976,1464.83C852.742,1465.96 851.076,1466.53 848.976,1466.53C847.376,1466.53 846.176,1465.91 845.376,1464.68C844.676,1463.64 844.326,1462.3 844.326,1460.63C844.326,1458.23 844.926,1456.06 846.126,1454.13C847.426,1452.03 849.026,1450.98 850.926,1450.98C851.259,1450.98 851.559,1451.01 851.826,1451.08C852.792,1450.08 853.809,1449.58 854.876,1449.58C856.076,1449.58 856.992,1450.11 857.626,1451.18C858.159,1452.08 858.426,1453.16 858.426,1454.43C858.426,1455.93 858.092,1457.6 857.426,1459.43C856.759,1461.26 855.942,1462.71 854.976,1463.78C856.842,1463.98 858.776,1463.35 860.776,1461.88C862.376,1460.71 863.792,1459.19 865.026,1457.33C865.192,1457.1 865.326,1457 865.426,1457.03C865.559,1457.06 865.626,1457.19 865.626,1457.43C865.626,1457.56 865.559,1457.75 865.426,1457.98ZM854.926,1450.83C854.226,1450.83 853.526,1451.26 852.826,1452.13C852.259,1452.86 851.876,1453.63 851.676,1454.43C851.409,1455.43 851.276,1456.46 851.276,1457.53C851.276,1460.56 852.042,1462.5 853.576,1463.33C854.542,1462.33 855.309,1460.93 855.876,1459.13C856.376,1457.53 856.626,1455.94 856.626,1454.38C856.626,1452.01 856.059,1450.83 854.926,1450.83ZM852.676,1464.23C850.876,1462.96 849.976,1460.83 849.976,1457.83C849.976,1455.83 850.392,1454.06 851.226,1452.53C850.092,1452.83 849.126,1454.1 848.326,1456.33C847.659,1458.19 847.326,1459.86 847.326,1461.33C847.326,1463.93 848.209,1465.23 849.976,1465.23C850.909,1465.23 851.809,1464.89 852.676,1464.23Z" style="fill:rgb(0,171,255);fill-rule:nonzero;"/>
            <path d="M895.126,1457.83C893.959,1459.69 892.492,1461.43 890.726,1463.03C888.492,1465.06 886.526,1466.08 884.826,1466.08C882.659,1466.08 881.576,1465.16 881.576,1463.33C881.576,1462.33 882.192,1460.76 883.426,1458.63L886.076,1454.03C886.209,1453.8 886.276,1453.55 886.276,1453.28C886.276,1452.85 886.059,1452.63 885.626,1452.63C885.326,1452.63 884.976,1452.75 884.576,1452.98C880.876,1455.21 877.592,1459.56 874.726,1466.03C873.392,1466.03 872.226,1466.25 871.226,1466.68L876.226,1454.13C876.326,1453.73 876.376,1453.39 876.376,1453.13C876.376,1452.53 876.109,1452.23 875.576,1452.23C872.942,1452.23 869.592,1456.83 865.526,1466.03C864.492,1466.03 863.442,1466.25 862.376,1466.68C862.842,1465.55 863.876,1463.14 865.476,1459.48C865.609,1459.18 866.059,1458.23 866.826,1456.63C866.292,1457.33 865.609,1458.21 864.776,1459.28C864.642,1459.48 864.459,1459.58 864.226,1459.58C863.926,1459.58 863.776,1459.43 863.776,1459.13C863.776,1458.96 863.859,1458.76 864.026,1458.53C864.859,1457.39 866.276,1455.31 868.276,1452.28C868.709,1451.61 869.409,1451.3 870.376,1451.33C871.342,1451.36 871.742,1451.38 871.576,1451.38C870.942,1452.75 870.309,1454.14 869.676,1455.58C870.842,1454.01 872.292,1452.76 874.026,1451.83C874.759,1451.43 875.526,1451.23 876.326,1451.23C878.226,1451.23 879.176,1452.08 879.176,1453.78C879.176,1454.38 878.976,1455.18 878.576,1456.18C878.276,1456.91 877.942,1457.68 877.576,1458.48C879.909,1455.44 881.992,1453.35 883.826,1452.18C884.759,1451.58 885.776,1451.28 886.876,1451.28C888.442,1451.28 889.226,1451.88 889.226,1453.08C889.226,1453.58 889.076,1454.16 888.776,1454.83C887.576,1456.83 886.342,1459.13 885.076,1461.73C884.642,1462.63 884.426,1463.41 884.426,1464.08C884.426,1464.75 884.742,1465.08 885.376,1465.08C886.176,1465.08 887.192,1464.64 888.426,1463.78C890.759,1462.14 892.842,1459.96 894.676,1457.23C894.942,1456.83 895.176,1456.63 895.376,1456.63C895.476,1456.63 895.526,1456.69 895.526,1456.83C895.526,1457.06 895.392,1457.39 895.126,1457.83Z" style="fill:rgb(0,171,255);fill-rule:nonzero;"/>
            <path d="M909.626,1443.23C907.859,1446.89 904.059,1451.31 898.226,1456.48C896.859,1459.11 895.542,1462 894.276,1465.13C891.509,1472 890.126,1476.05 890.126,1477.28C890.126,1478.14 890.442,1478.58 891.076,1478.58C892.076,1478.58 893.092,1477.73 894.126,1476.03C894.926,1474.73 895.509,1473.44 895.876,1472.18C896.209,1471.01 896.376,1469.98 896.376,1469.08C896.376,1467.31 896.076,1466.1 895.476,1465.43C894.609,1465.36 893.892,1465.03 893.326,1464.43C893.059,1464.16 892.926,1463.88 892.926,1463.58C892.926,1463.05 893.242,1462.78 893.876,1462.78C894.542,1462.78 895.192,1463.19 895.826,1464.03L895.976,1464.18C896.442,1464.25 896.792,1464.28 897.026,1464.28C899.626,1464.28 902.142,1463.16 904.576,1460.93C905.709,1459.89 906.709,1458.68 907.576,1457.28C907.742,1457.01 907.909,1456.88 908.076,1456.88C908.209,1456.88 908.292,1456.98 908.326,1457.18C908.359,1457.35 908.309,1457.55 908.176,1457.78C904.809,1462.85 901.009,1465.38 896.776,1465.38C897.476,1466.58 897.826,1468.03 897.826,1469.73C897.826,1473.23 896.526,1475.96 893.926,1477.93C892.692,1478.86 891.626,1479.33 890.726,1479.33C889.159,1479.33 888.376,1478.18 888.376,1475.88C888.376,1472.25 890.242,1466.39 893.976,1458.33C898.476,1448.63 901.709,1442.51 903.676,1439.98C904.909,1438.41 906.326,1437.63 907.926,1437.63C909.626,1437.63 910.476,1438.5 910.476,1440.23C910.476,1441.06 910.192,1442.06 909.626,1443.23ZM908.476,1442.83C909.176,1441.53 909.526,1440.55 909.526,1439.88C909.526,1439.41 909.359,1439.18 909.026,1439.18C908.359,1439.18 907.459,1439.96 906.326,1441.53C904.259,1444.43 901.859,1448.68 899.126,1454.28C903.559,1450.05 906.676,1446.23 908.476,1442.83Z" style="fill:rgb(0,171,255);fill-rule:nonzero;"/>
            <path d="M929.526,1458.08C926.759,1462.21 923.242,1465.68 918.976,1468.48C917.642,1474.41 914.192,1478.64 908.626,1481.18C907.759,1481.58 906.842,1481.78 905.876,1481.78C903.676,1481.78 902.576,1480.98 902.576,1479.38C902.576,1477.05 904.976,1474.41 909.776,1471.48C911.176,1470.68 913.259,1469.46 916.026,1467.83C916.292,1466.39 916.726,1464.58 917.326,1462.38C915.426,1465.44 913.442,1466.86 911.376,1466.63C910.309,1466.5 909.476,1465.96 908.876,1465.03C908.376,1464.19 908.126,1463.21 908.126,1462.08C908.126,1460.78 908.676,1458.63 909.776,1455.63C909.276,1456.36 908.342,1457.61 906.976,1459.38C906.709,1459.71 906.426,1459.88 906.126,1459.88C905.992,1459.88 905.926,1459.83 905.926,1459.73C905.926,1459.56 906.009,1459.38 906.176,1459.18C907.742,1457.18 909.309,1454.85 910.876,1452.18C911.176,1451.64 911.742,1451.36 912.576,1451.33C912.176,1451.36 912.859,1451.38 914.626,1451.38C914.059,1452.78 913.076,1455.31 911.676,1458.98C911.009,1460.71 910.676,1462.21 910.676,1463.48C910.676,1464.71 911.076,1465.41 911.876,1465.58C912.909,1465.78 914.176,1464.8 915.676,1462.63C916.842,1460.96 917.692,1459.43 918.226,1458.03C919.159,1455.5 919.742,1453.73 919.976,1452.73C920.542,1451.83 921.926,1451.38 924.126,1451.38C922.692,1453.61 921.092,1458.71 919.326,1466.68C922.826,1464.75 926.042,1461.69 928.976,1457.53C929.076,1457.39 929.209,1457.33 929.376,1457.33C929.576,1457.33 929.676,1457.43 929.676,1457.63C929.676,1457.76 929.626,1457.91 929.526,1458.08ZM915.626,1469.53C914.359,1470.23 912.492,1471.28 910.026,1472.68C907.892,1473.91 906.259,1475.23 905.126,1476.63C904.159,1477.83 903.676,1478.75 903.676,1479.38C903.676,1480.14 904.192,1480.53 905.226,1480.53C906.026,1480.53 906.809,1480.3 907.576,1479.83C911.076,1477.73 913.759,1474.3 915.626,1469.53Z" style="fill:rgb(0,171,255);fill-rule:nonzero;"/>
            <path d="M980.676,1434.58C980.209,1435.75 977.776,1440.91 973.376,1450.08C974.776,1450.14 975.676,1450.03 976.076,1449.73C976.342,1449.53 976.559,1449.43 976.726,1449.43C976.926,1449.43 977.009,1449.53 976.976,1449.73C976.909,1449.96 976.726,1450.23 976.426,1450.53C975.359,1451.5 974.042,1452.01 972.476,1452.08C971.309,1454.35 970.559,1455.83 970.226,1456.53C969.392,1458.19 968.742,1459.71 968.276,1461.08C967.842,1462.31 967.626,1463.26 967.626,1463.93C967.626,1464.76 967.926,1465.18 968.526,1465.18C969.259,1465.18 970.409,1464.55 971.976,1463.28C974.676,1461.11 976.876,1458.58 978.576,1455.68C978.642,1455.58 978.742,1455.53 978.876,1455.53C979.309,1455.53 979.526,1455.73 979.526,1456.13C979.526,1456.73 978.559,1458.1 976.626,1460.23C974.992,1462.06 973.726,1463.33 972.826,1464.03C970.992,1465.5 969.326,1466.23 967.826,1466.23C965.926,1466.23 964.976,1465.1 964.976,1462.83C964.976,1462 965.126,1461.03 965.426,1459.93C965.859,1458.36 967.009,1455.71 968.876,1451.98L964.976,1451.38C963.042,1451.08 961.309,1450.96 959.776,1451.03C957.209,1457.23 954.076,1462.25 950.376,1466.08C945.642,1471.01 940.459,1473.38 934.826,1473.18C932.392,1473.08 930.442,1472.19 928.976,1470.53C927.509,1468.86 926.776,1466.8 926.776,1464.33C926.776,1462.66 927.126,1460.89 927.826,1459.03C928.826,1456.36 930.526,1454.03 932.926,1452.03C935.492,1449.86 938.126,1448.78 940.826,1448.78C942.459,1448.78 943.759,1449.3 944.726,1450.35C945.692,1451.4 946.176,1452.75 946.176,1454.38C946.176,1457.48 944.992,1460.18 942.626,1462.48C940.992,1464.05 939.209,1464.83 937.276,1464.83C935.942,1464.83 935.209,1464.44 935.076,1463.68C935.009,1463.21 935.142,1462.98 935.476,1462.98C935.742,1462.98 935.926,1463.16 936.026,1463.53C936.026,1463.93 936.476,1464.13 937.376,1464.13C937.909,1464.13 938.509,1464 939.176,1463.73C941.409,1462.86 943.026,1460.73 944.026,1457.33C944.359,1456.23 944.526,1455.19 944.526,1454.23C944.526,1452.96 944.201,1451.88 943.551,1450.98C942.901,1450.08 941.959,1449.63 940.726,1449.63C938.359,1449.63 936.159,1450.73 934.126,1452.93C932.459,1454.73 931.159,1456.91 930.226,1459.48C929.492,1461.48 929.126,1463.33 929.126,1465.03C929.126,1467.16 929.651,1468.89 930.701,1470.2C931.751,1471.52 933.159,1472.23 934.926,1472.33C939.226,1472.53 943.759,1469.75 948.526,1463.98C951.226,1460.68 953.926,1456.44 956.626,1451.28C954.926,1451.55 953.659,1451.86 952.826,1452.23C951.659,1452.73 950.809,1453.6 950.276,1454.83C950.042,1455.36 949.709,1455.64 949.276,1455.68C949.142,1455.71 949.017,1455.68 948.901,1455.58C948.784,1455.48 948.742,1455.36 948.776,1455.23C948.776,1455 948.909,1454.64 949.176,1454.18C950.942,1451.21 953.826,1449.44 957.826,1448.88C960.859,1442.58 963.592,1438.03 966.026,1435.23C965.092,1435.16 964.376,1435.13 963.876,1435.13C960.942,1435.13 958.376,1435.64 956.176,1436.68C953.609,1437.88 952.092,1439.63 951.626,1441.93C951.559,1442.26 951.526,1442.55 951.526,1442.78C951.526,1443.58 951.776,1444.26 952.276,1444.83C952.776,1445.39 953.409,1445.68 954.176,1445.68C955.076,1445.68 955.942,1445.17 956.776,1444.15C957.609,1443.14 958.026,1442.18 958.026,1441.28C958.026,1440.88 958.142,1440.68 958.376,1440.68C958.576,1440.68 958.676,1440.88 958.676,1441.28C958.642,1442.75 958.151,1443.94 957.201,1444.85C956.251,1445.77 955.042,1446.23 953.576,1446.23C952.276,1446.23 951.226,1445.85 950.426,1445.1C949.626,1444.35 949.309,1443.33 949.476,1442.03C949.809,1439.23 951.659,1437.18 955.026,1435.88C957.492,1434.91 960.426,1434.43 963.826,1434.43C965.126,1434.43 966.242,1434.51 967.176,1434.68C967.276,1434.71 967.326,1434.8 967.326,1434.93C967.326,1435.1 967.142,1435.48 966.776,1436.08C965.609,1438.01 963.609,1442.23 960.776,1448.73C961.809,1448.76 963.459,1448.96 965.726,1449.33C966.992,1449.53 968.376,1449.76 969.876,1450.03C972.176,1445.8 974.842,1441 977.876,1435.63C978.709,1434.16 979.442,1433.35 980.076,1433.18C980.442,1433.08 980.676,1433.21 980.776,1433.58C980.809,1433.85 980.776,1434.18 980.676,1434.58Z" style="fill:rgb(0,171,255);fill-rule:nonzero;"/>
            <path d="M997.976,1457.98C997.009,1459.68 995.559,1461.25 993.626,1462.68C991.492,1464.28 989.559,1465.06 987.826,1465.03C987.292,1465.03 986.859,1464.96 986.526,1464.83C985.292,1465.96 983.626,1466.53 981.526,1466.53C979.926,1466.53 978.726,1465.91 977.926,1464.68C977.226,1463.64 976.876,1462.3 976.876,1460.63C976.876,1458.23 977.476,1456.06 978.676,1454.13C979.976,1452.03 981.576,1450.98 983.476,1450.98C983.809,1450.98 984.109,1451.01 984.376,1451.08C985.342,1450.08 986.359,1449.58 987.426,1449.58C988.626,1449.58 989.542,1450.11 990.176,1451.18C990.709,1452.08 990.976,1453.16 990.976,1454.43C990.976,1455.93 990.642,1457.6 989.976,1459.43C989.309,1461.26 988.492,1462.71 987.526,1463.78C989.392,1463.98 991.326,1463.35 993.326,1461.88C994.926,1460.71 996.342,1459.19 997.576,1457.33C997.742,1457.1 997.876,1457 997.976,1457.03C998.109,1457.06 998.176,1457.19 998.176,1457.43C998.176,1457.56 998.109,1457.75 997.976,1457.98ZM987.476,1450.83C986.776,1450.83 986.076,1451.26 985.376,1452.13C984.809,1452.86 984.426,1453.63 984.226,1454.43C983.959,1455.43 983.826,1456.46 983.826,1457.53C983.826,1460.56 984.592,1462.5 986.126,1463.33C987.092,1462.33 987.859,1460.93 988.426,1459.13C988.926,1457.53 989.176,1455.94 989.176,1454.38C989.176,1452.01 988.609,1450.83 987.476,1450.83ZM985.226,1464.23C983.426,1462.96 982.526,1460.83 982.526,1457.83C982.526,1455.83 982.942,1454.06 983.776,1452.53C982.642,1452.83 981.676,1454.1 980.876,1456.33C980.209,1458.19 979.876,1459.86 979.876,1461.33C979.876,1463.93 980.759,1465.23 982.526,1465.23C983.459,1465.23 984.359,1464.89 985.226,1464.23Z" style="fill:rgb(0,171,255);fill-rule:nonzero;"/>
            <path d="M1012.63,1457.93C1009.96,1461.83 1007.38,1463.96 1004.88,1464.33C1003.41,1466.3 1000.89,1467.28 997.326,1467.28C995.992,1467.28 994.967,1467 994.251,1466.45C993.534,1465.9 993.176,1465.3 993.176,1464.63C993.176,1464.03 993.417,1463.56 993.901,1463.23C994.384,1462.89 994.942,1462.75 995.576,1462.78C996.009,1462.81 997.142,1462.98 998.976,1463.28C1000.38,1463.51 1001.53,1463.6 1002.43,1463.53C1003.13,1462.33 1003.48,1461.08 1003.48,1459.78C1003.48,1458.11 1002.51,1456.21 1000.58,1454.08C999.209,1456.51 997.642,1458.71 995.876,1460.68C995.509,1461.08 995.209,1461.28 994.976,1461.28C994.876,1461.28 994.826,1461.21 994.826,1461.08C994.826,1460.81 994.992,1460.5 995.326,1460.13C996.659,1458.6 998.192,1456.38 999.926,1453.48C999.192,1452.75 998.909,1451.46 999.076,1449.63C999.276,1447.36 1000.06,1446.23 1001.43,1446.23C1002.49,1446.23 1003.03,1446.85 1003.03,1448.08C1003.03,1449.58 1002.51,1451.08 1001.48,1452.58C1002.21,1453.28 1003.26,1454.36 1004.63,1455.83C1005.69,1457.03 1006.23,1458.46 1006.23,1460.13C1006.23,1460.89 1005.99,1461.88 1005.53,1463.08C1007.56,1462.78 1009.69,1460.96 1011.93,1457.63C1012.09,1457.39 1012.28,1457.28 1012.48,1457.28C1012.68,1457.28 1012.78,1457.36 1012.78,1457.53C1012.78,1457.66 1012.73,1457.8 1012.63,1457.93ZM1001.83,1449.53C1001.99,1448.96 1002.03,1448.41 1001.93,1447.88C1001.83,1447.44 1001.68,1447.25 1001.48,1447.28C1000.98,1447.38 1000.64,1447.98 1000.48,1449.08C1000.34,1450.14 1000.49,1451.08 1000.93,1451.88C1001.09,1451.48 1001.39,1450.69 1001.83,1449.53ZM1001.78,1464.43C1001.21,1464.43 1000.39,1464.38 999.326,1464.28C998.026,1464.14 997.209,1464.08 996.876,1464.08C995.876,1464.05 995.376,1464.35 995.376,1464.98C995.376,1465.85 996.076,1466.28 997.476,1466.28C999.209,1466.28 1000.64,1465.66 1001.78,1464.43Z" style="fill:rgb(0,171,255);fill-rule:nonzero;"/>
            <path d="M1029.28,1449.03C1028.68,1449.36 1026.34,1449.5 1022.28,1449.43L1019.43,1449.38L1016.03,1455.43C1014.79,1457.66 1013.88,1459.76 1013.28,1461.73C1013.08,1462.39 1012.98,1462.94 1012.98,1463.38C1012.98,1464.61 1013.51,1465.23 1014.58,1465.23C1015.11,1465.23 1015.78,1465.03 1016.58,1464.63C1019.41,1463.19 1022.06,1460.73 1024.53,1457.23C1024.66,1457.03 1024.83,1456.89 1025.03,1456.83C1025.19,1456.83 1025.28,1456.93 1025.28,1457.13C1025.28,1457.3 1025.21,1457.48 1025.08,1457.68C1022.74,1461.25 1020.11,1463.86 1017.18,1465.53C1016.24,1466.06 1015.28,1466.33 1014.28,1466.33C1013.14,1466.33 1012.22,1466 1011.5,1465.33C1010.78,1464.66 1010.43,1463.76 1010.43,1462.63C1010.43,1462.06 1010.53,1461.5 1010.73,1460.93C1011.99,1457.33 1013.74,1453.48 1015.98,1449.38L1014.38,1449.38C1013.58,1449.38 1013.18,1449.23 1013.18,1448.93C1013.18,1448.53 1013.54,1448.33 1014.28,1448.33L1016.53,1448.33C1017.03,1447.36 1018.46,1444.73 1020.83,1440.43C1021.06,1440 1021.73,1439.78 1022.83,1439.78C1023.16,1439.78 1023.53,1439.86 1023.93,1440.03C1024.16,1440.16 1024.28,1440.3 1024.28,1440.43C1024.28,1440.5 1024.26,1440.55 1024.23,1440.58C1023.79,1441.38 1022.38,1443.96 1019.98,1448.33C1025.41,1448.33 1028.38,1448.19 1028.88,1447.93C1029.08,1447.83 1029.28,1447.78 1029.48,1447.78C1029.81,1447.78 1029.98,1447.93 1029.98,1448.23C1029.98,1448.5 1029.74,1448.76 1029.28,1449.03Z" style="fill:rgb(0,171,255);fill-rule:nonzero;"/>
            <path d="M1039.93,1458.13C1036.16,1463.33 1032.31,1466.05 1028.38,1466.28C1026.81,1466.38 1025.61,1465.94 1024.78,1464.98C1023.94,1464.01 1023.53,1462.73 1023.53,1461.13C1023.53,1458.06 1024.88,1455.35 1027.58,1452.98C1029.04,1451.68 1030.61,1451.03 1032.28,1451.03C1034.01,1451.03 1034.88,1451.83 1034.88,1453.43C1034.88,1455.39 1033.98,1457.03 1032.18,1458.33C1030.94,1459.23 1029.69,1459.68 1028.43,1459.68C1028.03,1459.68 1027.59,1459.63 1027.13,1459.53C1026.89,1460.43 1026.78,1461.3 1026.78,1462.13C1026.78,1464.16 1027.59,1465.18 1029.23,1465.18C1030.93,1465.18 1032.86,1464.25 1035.03,1462.38C1036.73,1460.91 1038.21,1459.25 1039.48,1457.38C1039.74,1456.94 1039.96,1456.86 1040.13,1457.13C1040.29,1457.39 1040.23,1457.73 1039.93,1458.13ZM1033.38,1454.23C1033.51,1453.83 1033.58,1453.48 1033.58,1453.18C1033.58,1452.44 1033.31,1452.03 1032.78,1451.93C1031.78,1451.76 1030.64,1452.61 1029.38,1454.48C1028.28,1456.08 1027.61,1457.48 1027.38,1458.68C1027.58,1458.78 1027.81,1458.83 1028.08,1458.83C1028.91,1458.83 1029.88,1458.35 1031,1457.4C1032.12,1456.45 1032.91,1455.39 1033.38,1454.23Z" style="fill:rgb(0,171,255);fill-rule:nonzero;"/>
            <path d="M1054.03,1442.68C1051.86,1446.48 1048.24,1450.58 1043.18,1454.98L1041.53,1458.88C1040.86,1460.44 1040.53,1461.78 1040.53,1462.88C1040.53,1464.61 1041.29,1465.48 1042.83,1465.48C1044.03,1465.48 1045.21,1465.03 1046.38,1464.13C1048.41,1462.56 1050.43,1460.31 1052.43,1457.38C1052.53,1457.21 1052.64,1457.13 1052.78,1457.13C1052.98,1457.13 1053.08,1457.26 1053.08,1457.53C1053.08,1457.66 1053.03,1457.81 1052.93,1457.98C1050.93,1461.05 1048.76,1463.48 1046.43,1465.28C1045.13,1466.28 1043.73,1466.78 1042.23,1466.78C1040.83,1466.78 1039.79,1466.36 1039.13,1465.53C1038.46,1464.69 1038.21,1463.58 1038.38,1462.18C1038.61,1460.14 1039.46,1457.38 1040.93,1453.88C1043.36,1448.11 1045.91,1443.48 1048.58,1439.98C1049.84,1438.35 1051.29,1437.53 1052.93,1437.53C1054.36,1437.53 1055.08,1438.21 1055.08,1439.58C1055.08,1440.41 1054.73,1441.44 1054.03,1442.68ZM1052.28,1443.38C1053.31,1441.68 1053.83,1440.46 1053.83,1439.73C1053.83,1439.36 1053.68,1439.18 1053.38,1439.18C1052.74,1439.18 1051.86,1439.96 1050.73,1441.53C1048.33,1444.83 1046.11,1448.58 1044.08,1452.78C1047.61,1449.71 1050.34,1446.58 1052.28,1443.38Z" style="fill:rgb(0,171,255);fill-rule:nonzero;"/>
        </g>
    </g>
</svg>
